<svg width="197" height="162" viewBox="0 0 197 162" fill="none" xmlns="http://www.w3.org/2000/svg">
<path d="M189.249 53.5296C189.279 54.1347 189.239 54.7506 189.103 55.3623L176.952 109.629C176.339 112.363 174.144 114.285 171.621 114.3L98.7128 114.711C98.7033 114.711 98.6944 114.711 98.6849 114.711H25.7757C23.2394 114.711 21.0293 112.782 20.4166 110.034L8.26516 55.5621C8.12524 54.9339 8.08473 54.3008 8.12008 53.68C3.41933 52.0265 0 47.1154 0 41.3278C0 34.1868 5.20301 28.3778 11.5991 28.3778C17.9951 28.3778 23.1981 34.1868 23.1981 41.3278C23.1981 45.3493 21.5477 48.9473 18.9636 51.3244L34.1771 68.4381C38.0221 72.7638 43.3577 75.2436 48.8162 75.2436C55.2705 75.2436 61.4242 71.8215 65.2994 66.0882L90.3018 29.1013C88.2015 26.758 86.9009 23.5201 86.9009 19.95C86.9009 12.809 92.1039 7 98.5 7C104.896 7 110.099 12.809 110.099 19.95C110.099 23.4132 108.868 26.5566 106.877 28.8826C106.884 28.8925 106.892 28.9007 106.898 28.9114L131.72 66.0002C135.593 71.7886 141.769 75.2444 148.242 75.2444C153.751 75.2444 158.931 72.8493 162.826 68.4998L178.135 51.4074C175.496 49.0312 173.802 45.3986 173.802 41.3278C173.802 34.1868 179.005 28.3778 185.401 28.3778C191.797 28.3778 197 34.1868 197 41.3278C197 46.9608 193.756 51.7519 189.249 53.5296ZM175.766 134.033C175.766 130.628 173.293 127.867 170.243 127.867H27.3716C24.3212 127.867 21.8482 130.628 21.8482 134.033V148.833C21.8482 152.239 24.3212 155 27.3716 155H170.243C173.293 155 175.766 152.239 175.766 148.833V134.033Z" fill="white"/>
</svg>
