<svg width="360" height="295" viewBox="0 0 360 295" fill="none" xmlns="http://www.w3.org/2000/svg">
<g id="check">
<path id="line" d="M134.4 294.05C134.9 293.75 134.6 293.55 133.4 293.3C128.2 292.3 120 287.95 116.8 284.55C115.95 283.7 115.1 283 114.85 283C114.25 283 112.2 281.05 98.0502 267C92.1002 261.1 85.4002 254.7 83.1002 252.75C80.8502 250.85 75.3502 245.45 70.9502 240.85C66.5002 236.2 60.9002 230.8 58.5502 228.85C56.2002 226.9 48.9502 219.95 42.5002 213.35C36.0502 206.8 29.8002 200.75 28.6502 199.95C25.7002 197.9 8.5002 180.7 8.5002 179.8C8.5002 179.4 8.2502 178.9 8.0002 178.75C7.7002 178.55 6.80019 177.05 5.90019 175.35C5.05019 173.65 4.2502 172.15 4.0502 172C3.9002 171.85 3.75019 171.55 3.70019 171.25C3.70019 171 3.4002 169.65 3.0502 168.35C2.5502 166.65 2.25019 166.15 1.95019 166.6C1.70019 167 1.5002 166.05 1.5002 164.15C1.5002 162.45 1.3002 160.9 1.0002 160.75C0.350195 160.35 0.350195 151.85 1.0002 151.2C1.2502 150.95 1.6002 149.55 1.7502 148.1C1.8502 146.6 2.10019 145.25 2.20019 145.05C2.45019 144.7 2.6002 144 3.3002 140.75C3.5002 139.95 3.9002 138.9 4.2502 138.5C4.5502 138.1 5.6002 136.2 6.5002 134.3C9.6002 127.8 19.5502 119.35 26.8502 117C27.9002 116.65 29.0002 116.25 29.2502 116.05C29.5502 115.9 30.3002 115.7 31.0002 115.6C31.7002 115.55 32.6002 115.3 33.0002 115.15C33.4002 114.95 34.7502 114.8 35.9502 114.75C37.2002 114.7 38.2502 114.45 38.4002 114.1C38.5002 113.7 40.0502 113.5 43.4002 113.55C46.6002 113.6 47.8502 113.75 47.0002 114L45.7502 114.4L47.0002 114.5C47.7002 114.6 49.0002 114.6 49.8502 114.55C50.8002 114.45 51.8002 114.75 52.2502 115.2C52.8002 115.7 53.5502 115.9 54.6502 115.7C55.8502 115.5 56.0502 115.55 55.5002 115.95C54.9002 116.4 55.0502 116.5 56.3502 116.5C57.2002 116.5 58.0002 116.7 58.1002 116.9C58.2002 117.15 59.9002 118.2 61.8502 119.2C63.8502 120.25 67.2002 122.6 69.2502 124.45C71.3502 126.25 73.6502 128.2 74.4002 128.75C75.1502 129.3 80.2502 134.25 85.7502 139.75C91.2502 145.25 96.6002 150.45 97.7002 151.25C98.7502 152.1 104.4 157.45 110.2 163.2C116 168.95 121.75 174.5 123 175.55C124.25 176.6 129.05 181.3 133.75 186C138.4 190.7 142.6 194.8 143.05 195.05C144.25 195.65 145.15 195.25 146.1 193.6C146.55 192.85 147.5 191.6 148.2 190.85C148.9 190.1 149.5 189.25 149.5 188.95C149.5 188.7 150.4 187.7 151.5 186.7C152.6 185.7 153.5 184.65 153.5 184.4C153.5 184.15 155.1 182.05 157 179.75C158.95 177.45 160.5 175.35 160.5 175.1C160.5 174.85 161.05 174.1 161.7 173.45C163.5 171.6 171.5 161.6 171.5 161.15C171.5 160.95 172.3 159.95 173.3 158.95C174.3 157.95 175.35 156.65 175.7 156.1C176 155.55 177.65 153.4 179.4 151.3C181.1 149.2 182.5 147.35 182.5 147.2C182.5 147 183.45 145.8 184.65 144.45C185.8 143.15 187.65 140.9 188.75 139.5C189.85 138.05 191.35 136.15 192.15 135.25C192.9 134.35 193.5 133.4 193.5 133.1C193.5 132.85 193.85 132.3 194.35 131.95C194.8 131.55 195.85 130.35 196.7 129.2C197.55 128.05 199.6 125.5 201.25 123.45C202.9 121.45 204.5 119.4 204.75 118.95C205.05 118.45 207.55 115.25 210.4 111.8C213.2 108.3 215.5 105.35 215.5 105.2C215.5 105.05 216.3 104 217.25 102.85C222.4 96.7001 226.5 91.5001 226.5 91.1001C226.5 90.8501 226.85 90.3 227.35 89.95C227.8 89.55 228.85 88.3 229.7 87.2C230.55 86.05 232.65 83.4 234.4 81.3C236.1 79.2 237.5 77.3 237.5 77.05C237.5 76.8 237.85 76.3 238.35 75.95C238.8 75.55 239.85 74.3 240.7 73.2C241.55 72.05 243.65 69.4 245.4 67.3C247.1 65.2 248.5 63.3001 248.5 63.0501C248.5 62.8001 248.85 62.3 249.35 61.95C249.8 61.55 250.85 60.3 251.7 59.2C252.55 58.05 254.65 55.4001 256.4 53.3001C258.1 51.2001 259.5 49.3501 259.5 49.1501C259.5 48.9001 260.35 47.85 261.4 46.75C262.4 45.6 263.5 44.3501 263.75 43.9001C264.05 43.4501 265.65 41.4001 267.4 39.3001C269.1 37.2001 270.5 35.3 270.5 35.1C270.5 34.85 271.4 33.75 272.5 32.6C273.6 31.5 274.5 30.4 274.5 30.2C274.5 30 275.35 28.9 276.4 27.75C279.4 24.3 281.5 21.6 281.5 21.1C281.5 20.85 281.85 20.3001 282.35 19.9501C282.8 19.5501 284 18.15 285.05 16.75C289.25 11.2 293.15 7.75005 298.2 5.10005C301.35 3.50005 306.85 1.55005 308.4 1.50005C309 1.50005 309.5 1.30005 309.5 1.05005C309.5 0.800049 313.3 0.600049 318 0.550049C323.3 0.550049 326.4 0.75005 326.25 1.00005C326.05 1.30005 326.7 1.50005 327.7 1.50005C328.65 1.50005 329.55 1.70005 329.75 1.95005C329.9 2.20005 330.85 2.70005 331.9 3.00005C333.6 3.55005 336.9 5.10005 339.9 6.75005C340.5 7.10005 341.55 7.80005 342.15 8.35005C342.75 8.95005 344 9.75005 344.85 10.2001C345.75 10.6501 347.4 12.2001 348.5 13.6501C349.55 15.0501 351 16.9001 351.6 17.7001C352.25 18.5001 352.9 19.6 353.1 20.1C353.3 20.6 353.7 21 354 21C354.25 21 354.5 21.35 354.5 21.75C354.5 22.15 355.15 23.85 355.95 25.6C357.5 29 357.95 30.45 358.35 34C358.5 35.25 358.8 36.45 359.05 36.75C359.65 37.4 359.6 46.85 359 47.25C358.75 47.4 358.5 48.3501 358.5 49.3001C358.5 50.2501 358.3 51.4001 358.05 51.9001C357.4 53.2001 356.5 56.2 356.5 57.1C356.5 57.55 356.3 58 356.1 58.1C355.9 58.2 355.2 59.35 354.55 60.75C353.15 63.75 348.9 69.45 345.75 72.45C344.5 73.65 343.5 74.8 343.5 74.95C343.5 75.15 342.5 76.3501 341.25 77.6501C340 79.0001 339 80.3001 339 80.6001C339 80.9501 338.25 81.9 337.4 82.75C334.75 85.35 330.5 90.4 330.5 90.95C330.5 91.25 329.25 92.75 327.75 94.3C326.25 95.9 325 97.3501 325 97.6001C325 97.8501 324.2 98.7 323.25 99.55C322.3 100.4 321.5 101.45 321.5 101.9C321.5 102.3 320.25 103.9 318.75 105.35C317.25 106.85 316 108.35 316 108.7C316 109.1 315.45 109.75 314.75 110.2C314.05 110.65 312.95 111.9 312.25 113C311.55 114.1 310.2 115.8 309.3 116.75C308.35 117.75 307.4 118.95 307.25 119.45C307.1 120 306.45 120.75 305.85 121.15C305.2 121.55 304.05 122.85 303.25 124.05C302.45 125.25 301.05 127 300.15 127.85C299.25 128.75 298.5 129.75 298.5 130C298.5 130.3 297.25 131.75 295.75 133.25C294.25 134.8 293 136.3 293 136.7C293 137.05 292.35 137.95 291.5 138.65C290.7 139.4 289.7 140.65 289.25 141.45C288.85 142.3 288.1 143.2 287.6 143.45C287.1 143.7 286 144.9 285.25 146.1C284.45 147.3 283.15 148.95 282.4 149.75C281.65 150.6 280 152.4 278.75 153.75C277.5 155.15 276 157.1 275.45 158.15C274.9 159.2 274.1 160.2 273.7 160.35C273.3 160.5 272.25 161.65 271.4 162.9C270.55 164.15 269.1 165.85 268.15 166.65C267.25 167.45 266.5 168.45 266.5 168.8C266.5 169.2 265.9 170.15 265.15 170.9C262 174.05 257.5 179.5 257.5 180.2C257.5 180.6 256.7 181.55 255.75 182.3C254.8 183 253.5 184.45 252.9 185.45C252.25 186.45 251.15 187.75 250.4 188.4C249.65 189.05 248.9 190 248.7 190.6C248.55 191.2 247.7 192.25 246.85 192.95C246 193.65 244.75 195.15 244 196.3C243.3 197.45 241.95 199 241.05 199.75C240.2 200.5 239.05 201.95 238.55 202.95C238 203.95 236.9 205.25 236.05 205.9C235.2 206.5 234.5 207.45 234.5 207.9C234.5 208.4 233.55 209.6 232.4 210.55C231.2 211.55 229.9 213 229.5 213.8C229.1 214.55 228 215.85 227.15 216.65C226.25 217.45 225.5 218.5 225.5 218.95C225.5 219.4 224.5 220.6 223.3 221.6C222.15 222.6 220.8 224.15 220.35 225.1C219.9 226 218.85 227.3 218.05 228C217.2 228.7 216.5 229.55 216.5 229.9C216.5 230.25 215.25 231.75 213.7 233.25C212.2 234.75 211.05 236.2 211.25 236.45C211.4 236.75 211.1 237.2 210.55 237.45C210.05 237.75 208.75 239.15 207.65 240.6C206.6 242.05 205.1 243.8 204.3 244.5C203.5 245.15 202.55 246.45 202.2 247.35C201.8 248.25 201.3 249 201.05 249C200.85 249 199.55 250.4 198.2 252.15C196.85 253.85 195.25 255.65 194.65 256.15C194 256.65 193.5 257.45 193.5 257.9C193.5 258.35 192.25 259.95 190.75 261.45C189.25 262.95 188 264.45 188 264.8C188 265.1 187.2 266 186.25 266.7C185.3 267.45 184.5 268.45 184.5 268.9C184.5 269.35 183.35 270.85 182 272.15C180.65 273.5 179.4 275 179.25 275.5C179.1 276 178.4 276.75 177.75 277.2C177.05 277.65 175.95 278.9 175.25 280C173.65 282.55 170.15 286 167.7 287.5C166.65 288.15 165.65 288.8 165.5 288.95C164.95 289.6 161.1 291.35 158.9 292C157.55 292.4 156.5 292.9 156.5 293.1C156.5 293.3 155.5 293.5 154.3 293.5C153.05 293.5 151.9 293.75 151.75 294C151.55 294.3 147.95 294.5 142.6 294.5C137.6 294.5 134.05 294.3 134.4 294.05V294.05Z" fill="#8436C8"/>
</g>
</svg>
